<?xml version="1.0" encoding="UTF-8"?>
<svg xmlns="http://www.w3.org/2000/svg" width="1024" height="1024" viewBox="0 0 1024 1024">
	<defs>
		<linearGradient id="gradW" x1="7.624" y1="272.72" x2="520.49" y2="854.893" gradientUnits="userSpaceOnUse">
			<stop offset="0%" stop-color="#FF5C8A"/>
			<stop offset="55%" stop-color="#8B5CF6"/>
			<stop offset="100%" stop-color="#4DA3FF"/>
		</linearGradient>
		<linearGradient id="gradW2" x1="118.514" y1="730.141" x2="291.779" y2="584.598" gradientUnits="userSpaceOnUse">
			<stop offset="0%" stop-color="#7044BC"/>
			<stop offset="100%" stop-color="#B58FE9"/>
		</linearGradient>
		<linearGradient id="gradU" x1="465.045" y1="272.72" x2="880.883" y2="910.338" gradientUnits="userSpaceOnUse">
			<stop offset="0%" stop-color="#49B5FF"/>
			<stop offset="55%" stop-color="#18DDBA"/>
			<stop offset="100%" stop-color="#8DE35F"/>
		</linearGradient>
		<linearGradient id="gradI" x1="853.16" y1="411.333" x2="1074.94" y2="965.783" gradientUnits="userSpaceOnUse">
			<stop offset="0%" stop-color="#FFD25A"/>
			<stop offset="100%" stop-color="#34D399"/>
		</linearGradient>
		<radialGradient id="gradDot" cx="45%" cy="35%" r="100%">
			<stop offset="0%" stop-color="#FFD25A"/>
			<stop offset="100%" stop-color="#F59E0B"/>
		</radialGradient>
	</defs>
	<g>
		<path fill="url(#gradW)" d="M 87.326 798.796 C 70.554 795.137 52.465 785.642 37.079 772.404 C 23.855 761.038 9.703 738.264 3.95 719.052 L 0 705.884 L 0 520.143 L 0 334.403 L 3.299 324.7 C 12.087 298.793 34.39 282.215 63.332 280.067 C 97.029 277.572 125.735 297.92 136.062 331.63 C 138.46 339.462 138.613 347.945 138.613 478.823 L 138.613 617.699 L 142.078 614.663 C 143.991 613 149.008 608.509 153.236 604.697 C 157.478 600.885 166.515 592.984 173.335 587.149 C 180.155 581.313 193.226 570.058 202.374 562.115 C 239.328 530.082 248.13 523.221 259.302 517.815 C 280.233 507.696 304.241 507.793 326.225 518.092 C 337.674 523.442 341.417 526.52 377.567 560.341 C 393.881 575.588 410.473 591.002 414.451 594.592 L 421.687 601.107 L 422.657 618.849 C 426.913 697.47 451.697 750.282 503.746 791.616 C 512.132 798.27 512.45 798.741 509.29 799.614 C 507.447 800.141 496.898 800.612 485.837 800.668 C 462.91 800.806 449.825 798.297 435.507 791.02 C 421.368 783.84 418.471 781.65 362.638 736.296 C 348.624 724.902 335.525 714.367 333.529 712.884 C 331.533 711.387 324.52 705.676 317.963 700.187 C 303.243 687.878 299.264 685.785 290.74 685.785 C 285.722 685.785 282.575 686.756 278.292 689.597 C 273.067 693.076 244.429 717.569 220.394 739.096 C 170.175 784.089 158.878 791.81 134.011 798.172 C 121.785 801.305 100.134 801.596 87.326 798.796 Z"/>
		<path fill="url(#gradW2)" d="M 343.294 529.153 A 76.237 76.237 0 0 0 243.265 529.153 L 7.624 730.141 A 110.89 110.89 0 0 0 160.097 791.131 L 405.055 587.371 Z" />
		<path fill="url(#gradU)" d="M 622.273 808.555 C 572.678 800.418 536.902 783.549 506.144 753.789 C 478.726 727.258 462.356 697.803 452.168 656.677 C 449.299 645.13 449.243 641.942 448.786 494.5 C 448.467 392.121 448.786 341.001 449.798 334.403 C 451.918 320.597 457.851 308.773 467.429 299.32 C 481.789 285.154 495.789 279.692 517.829 279.665 C 540.104 279.637 554.27 285.597 568.769 301.108 C 577.917 310.88 581.078 316.12 585.111 328.165 C 587.509 335.318 587.703 344.729 588.382 479.253 L 589.103 622.717 L 592.444 631.034 C 597.254 642.996 601.759 649.206 611.24 656.871 C 627.721 670.205 651.853 676.277 671.605 672.049 C 683.415 669.526 700.742 660.516 707.146 653.558 C 715.934 644.021 722.393 631.144 724.126 619.681 C 725.11 613.208 725.637 575.02 725.65 510.87 C 725.664 407.036 725.734 405.747 731.916 392.717 C 733.316 389.792 737.876 383.693 742.076 379.161 C 754.593 365.632 771.892 358.646 792.808 358.674 C 811.438 358.701 826.02 364.121 840.325 376.333 C 849.418 384.095 855.142 393.978 858.677 408.034 C 861.31 418.471 861.435 423.836 861.449 528.46 C 861.463 644.313 861.13 651.423 854.768 674.128 C 840.879 723.641 807.46 763.408 759.597 787.375 C 744.141 795.123 721.603 802.871 703.805 806.559 C 686.34 810.176 639.226 811.327 622.273 808.555 Z"/>
		<path fill="url(#gradI)" d="M 829.249 801.264 C 815.721 800.986 804.646 800.238 804.646 799.6 C 804.646 798.963 807.238 796.717 810.412 794.61 C 819.186 788.802 840.103 768.121 848.96 756.478 C 871.512 726.856 881.548 704.387 890.128 664.301 C 892.221 654.501 892.581 639.378 893.275 534.628 L 894.051 416.032 L 899.263 405.497 C 923.936 355.597 998.398 359.131 1020.493 411.263 L 1024.347 420.342 L 1024.347 560.341 C 1024.347 693.354 1024.222 700.825 1021.727 710.015 C 1011.303 748.466 987.503 776.563 952.143 792.143 C 935.038 799.669 925.53 801.042 887.813 801.416 C 869.142 801.61 842.778 801.541 829.249 801.264 Z"/>
		<path fill="url(#gradDot)" d="M 940.514 337.022 C 926.833 332.074 910.767 318.379 904.696 306.486 C 895.825 289.09 895.021 266.566 902.7 250.182 C 911.128 232.176 926.999 219.521 945.809 215.82 C 980.739 208.945 1012.523 229.168 1021.602 264.057 C 1024.18 273.968 1024.166 280.774 1021.519 292.001 C 1017.083 310.797 1006.188 324.312 988.349 333.127 C 977.814 338.339 976.747 338.575 962.04 338.908 C 950.674 339.171 945.116 338.686 940.514 337.022 Z"/>
	</g>
</svg>