<?xml version="1.0" encoding="UTF-8"?>
<svg xmlns="http://www.w3.org/2000/svg" width="1024" height="1024" viewBox="0 0 1024 1024"> <!-- 140 156.5 745 745 -->
	<defs>
		<linearGradient id="gradW" x1="150" y1="320" x2="520" y2="740" gradientUnits="userSpaceOnUse">
			<stop offset="0%" stop-color="#FF5C8A"/>
			<stop offset="55%" stop-color="#8B5CF6"/>
			<stop offset="100%" stop-color="#4DA3FF"/>
		</linearGradient>
		<linearGradient id="gradW2" x1="230" y1="650" x2="355" y2="545" gradientUnits="userSpaceOnUse">
			<stop offset="0%" stop-color="#7044BC"/>
			<stop offset="100%" stop-color="#B58FE9"/>
		</linearGradient>
		<linearGradient id="gradU" x1="480" y1="320" x2="780" y2="780" gradientUnits="userSpaceOnUse">
			<stop offset="0%" stop-color="#49B5FF"/>
			<stop offset="55%" stop-color="#18DDBA"/>
			<stop offset="100%" stop-color="#8DE35F"/>
		</linearGradient>
		<linearGradient id="gradI" x1="760" y1="420" x2="920" y2="820" gradientUnits="userSpaceOnUse">
			<stop offset="0%" stop-color="#FFD25A"/>
			<stop offset="100%" stop-color="#34D399"/>
		</linearGradient>
		<radialGradient id="gradDot" cx="45%" cy="35%" r="100%">
			<stop offset="0%" stop-color="#FFD25A"/>
			<stop offset="100%" stop-color="#F59E0B"/>
		</radialGradient>
	</defs>
	<g>
		<path fill="url(#gradW)" d="M 207.50 699.53 C195.40,696.89 182.35,690.04 171.25,680.49 C161.71,672.29 151.50,655.86 147.35,642.00 L 144.50 632.50 L 144.50 498.50 L 144.50 364.50 L 146.88 357.50 C153.22,338.81 169.31,326.85 190.19,325.30 C214.50,323.50 235.21,338.18 242.66,362.50 C244.39,368.15 244.50,374.27 244.50,468.69 L 244.50 568.88 L 247.00 566.69 C248.38,565.49 252.00,562.25 255.05,559.50 C258.11,556.75 264.63,551.05 269.55,546.84 C274.47,542.63 283.90,534.51 290.50,528.78 C317.16,505.67 323.51,500.72 331.57,496.82 C346.67,489.52 363.99,489.59 379.85,497.02 C388.11,500.88 390.81,503.10 416.89,527.50 C428.66,538.50 440.63,549.62 443.50,552.21 L 448.72 556.91 L 449.42 569.71 C452.49,626.43 470.37,664.53 507.92,694.35 C513.97,699.15 514.20,699.49 511.92,700.12 C510.59,700.50 502.98,700.84 495.00,700.88 C478.46,700.98 469.02,699.17 458.69,693.92 C448.49,688.74 446.40,687.16 406.12,654.44 C396.01,646.22 386.56,638.62 385.12,637.55 C383.68,636.47 378.62,632.35 373.89,628.39 C363.27,619.51 360.40,618.00 354.25,618.00 C350.63,618.00 348.36,618.70 345.27,620.75 C341.50,623.26 320.84,640.93 303.50,656.46 C267.27,688.92 259.12,694.49 241.18,699.08 C232.36,701.34 216.74,701.55 207.50,699.53 Z"/>
		<path stroke="url(#gradW2)" stroke-width="105" stroke-linecap="round" stroke-linejoin="round" d="M 230 650 L 355 545"/>
		<path fill="url(#gradW2)" d="M 390 504 A 55 55 0 0 0 320 504 L 150 650 A 80 80 0 0 0 260 694 L 437 547 Z"/>
		<path fill="url(#gradU)" d="M 593.43 706.57 C557.65,700.70 531.84,688.53 509.65,667.06 C489.87,647.92 478.06,626.67 470.71,597.00 C468.64,588.67 468.60,586.37 468.27,480.00 C468.04,406.14 468.27,369.26 469.00,364.50 C470.53,354.54 474.81,346.01 481.72,339.19 C492.08,328.97 502.18,325.03 518.08,325.01 C534.15,324.99 544.37,329.29 554.83,340.48 C561.43,347.53 563.71,351.31 566.62,360.00 C568.35,365.16 568.49,371.95 568.98,469.00 L 569.50 572.50 L 571.91 578.50 C575.38,587.13 578.63,591.61 585.47,597.14 C597.36,606.76 614.77,611.14 629.02,608.09 C637.54,606.27 650.04,599.77 654.66,594.75 C661.00,587.87 665.66,578.58 666.91,570.31 C667.62,565.64 668.00,538.09 668.01,491.81 C668.02,416.90 668.07,415.97 672.53,406.57 C673.54,404.46 676.83,400.06 679.86,396.79 C688.89,387.03 701.37,381.99 716.46,382.01 C729.90,382.03 740.42,385.94 750.74,394.75 C757.30,400.35 761.43,407.48 763.98,417.62 C765.88,425.15 765.97,429.02 765.98,504.50 C765.99,588.08 765.75,593.21 761.16,609.59 C751.14,645.31 727.03,674.00 692.50,691.29 C681.35,696.88 665.09,702.47 652.25,705.13 C639.65,707.74 605.66,708.57 593.43,706.57 Z"/>
		<path fill="url(#gradI)" d="M 742.75 701.31 C732.99,701.11 725.00,700.57 725.00,700.11 C725.00,699.65 726.87,698.03 729.16,696.51 C735.49,692.32 750.58,677.40 756.97,669.00 C773.24,647.63 780.48,631.42 786.67,602.50 C788.18,595.43 788.44,584.52 788.94,508.95 L 789.50 423.39 L 793.26 415.79 C811.06,379.79 864.78,382.34 880.72,419.95 L 883.50 426.50 L 883.50 527.50 C883.50,623.46 883.41,628.85 881.61,635.48 C874.09,663.22 856.92,683.49 831.41,694.73 C819.07,700.16 812.21,701.15 785.00,701.42 C771.53,701.56 752.51,701.51 742.75,701.31 Z"/>
		<path fill="url(#gradDot)" d="M 823.02 366.39 C813.15,362.82 801.56,352.94 797.18,344.36 C790.78,331.81 790.20,315.56 795.74,303.74 C801.82,290.75 813.27,281.62 826.84,278.95 C852.04,273.99 874.97,288.58 881.52,313.75 C883.38,320.90 883.37,325.81 881.46,333.91 C878.26,347.47 870.40,357.22 857.53,363.58 C849.93,367.34 849.16,367.51 838.55,367.75 C830.35,367.94 826.34,367.59 823.02,366.39 Z"/>
	</g>
</svg>